<svg width="18" height="20" viewBox="0 0 18 20" fill="none" xmlns="http://www.w3.org/2000/svg">
<path d="M1.78425 10.5263L9.28737 3.15483C9.6487 2.79994 10.0776 2.51844 10.5497 2.32641C11.0217 2.13438 11.5277 2.03557 12.0386 2.03564C12.5495 2.0357 13.0554 2.13464 13.5274 2.32679C13.9994 2.51894 14.4283 2.80054 14.7895 3.15552C15.1508 3.5105 15.4373 3.93191 15.6327 4.39568C15.8282 4.85945 15.9288 5.35651 15.9287 5.85846C15.9286 6.36042 15.8279 6.85745 15.6324 7.32117C15.4368 7.78489 15.1501 8.20623 14.7888 8.56112L5.7862 17.4058C5.45435 17.7318 5.00427 17.9149 4.53497 17.9149C4.06567 17.9149 3.61559 17.7318 3.28374 17.4058C2.95189 17.0797 2.76546 16.6375 2.76546 16.1765C2.76546 15.7154 2.95189 15.2732 3.28374 14.9472L11.2862 7.08516C11.4736 6.88757 11.5757 6.62622 11.5708 6.35618C11.566 6.08614 11.4546 5.8285 11.2602 5.63752C11.0658 5.44655 10.8036 5.33715 10.5287 5.33239C10.2539 5.32762 9.98786 5.42786 9.78673 5.61198L1.78425 13.474C1.05452 14.1909 0.644565 15.1633 0.644565 16.1772C0.644565 17.1911 1.05452 18.1634 1.78425 18.8803C2.51397 19.5972 3.50369 20 4.53567 20C5.56766 20 6.55738 19.5972 7.28711 18.8803L16.2883 10.0343C17.3941 8.92229 18.0091 7.42681 17.9999 5.87222C17.9907 4.31763 17.358 2.82929 16.2391 1.73001C15.1202 0.630728 13.6052 0.00915333 12.0229 0.000100286C10.4405 -0.00895276 8.91834 0.595246 7.78646 1.68165L0.28475 9.05171C0.097342 9.24931 -0.00468432 9.51065 0.000165294 9.78069C0.00501491 10.0507 0.116362 10.3084 0.310749 10.4994C0.505135 10.6903 0.767385 10.7997 1.04225 10.8045C1.31711 10.8092 1.58312 10.709 1.78425 10.5249V10.5263Z" fill="#969696"/>
</svg>
