<svg width="73" height="21" viewBox="0 0 73 21" fill="none" xmlns="http://www.w3.org/2000/svg">
<path d="M19.5594 0.00355601C19.3308 0.0503979 19.1269 0.17302 18.9838 0.349721C18.8407 0.526421 18.7676 0.745808 18.7775 0.969054V19.9004C18.7543 20.0358 18.7622 20.1745 18.8006 20.3067C18.839 20.439 18.9071 20.5617 19.0001 20.6663C19.093 20.7709 19.2087 20.8549 19.339 20.9125C19.4693 20.9701 19.6112 21 19.7548 21C19.8984 21 20.0403 20.9701 20.1706 20.9125C20.301 20.8549 20.4166 20.7709 20.5096 20.6663C20.6026 20.5617 20.6706 20.439 20.7091 20.3067C20.7475 20.1745 20.7554 20.0358 20.7321 19.9004V0.969054C20.7355 0.835982 20.7094 0.70374 20.6556 0.580961C20.6018 0.458181 20.5215 0.347626 20.42 0.256512C20.3184 0.165398 20.198 0.0957747 20.0664 0.0521875C19.9348 0.00860022 19.7951 -0.00797097 19.6563 0.00355601C19.624 0.00204322 19.5917 0.00204322 19.5594 0.00355601V0.00355601ZM7.04971 0.999942C6.82112 1.04678 6.61725 1.16941 6.47415 1.34611C6.33106 1.52281 6.25799 1.74219 6.26786 1.96544V18.904C6.24464 19.0394 6.25252 19.1781 6.29094 19.3103C6.32937 19.4426 6.39743 19.5653 6.4904 19.6699C6.58337 19.7745 6.69903 19.8585 6.82936 19.9161C6.95969 19.9738 7.10157 20.0036 7.24517 20.0036C7.38878 20.0036 7.53066 19.9738 7.66099 19.9161C7.79132 19.8585 7.90698 19.7745 7.99995 19.6699C8.09292 19.5653 8.16098 19.4426 8.1994 19.3103C8.23783 19.1781 8.24571 19.0394 8.22249 18.904V1.96544C8.2258 1.83237 8.19971 1.70013 8.14592 1.57735C8.09213 1.45457 8.01185 1.34401 7.91032 1.2529C7.80879 1.16178 7.6883 1.09216 7.55672 1.04857C7.42513 1.00499 7.2854 0.988415 7.14666 0.999942C7.11436 0.998429 7.08201 0.998429 7.04971 0.999942V0.999942ZM16.4319 3.9891C16.2034 4.03594 15.9995 4.15856 15.8564 4.33526C15.7133 4.51196 15.6402 4.73135 15.6501 4.9546V15.9148C15.6264 16.0505 15.6339 16.1894 15.672 16.322C15.7102 16.4546 15.7781 16.5776 15.8711 16.6826C15.9641 16.7875 16.0798 16.8718 16.2104 16.9297C16.3409 16.9875 16.483 17.0175 16.6269 17.0175C16.7708 17.0175 16.9129 16.9875 17.0434 16.9297C17.174 16.8718 17.2897 16.7875 17.3827 16.6826C17.4757 16.5776 17.5436 16.4546 17.5818 16.322C17.6199 16.1894 17.6274 16.0505 17.6037 15.9148V4.9546C17.607 4.82171 17.5809 4.68965 17.5273 4.56702C17.4736 4.44439 17.3935 4.33394 17.2922 4.24285C17.1909 4.15177 17.0707 4.0821 16.9394 4.03838C16.808 3.99466 16.6685 3.97787 16.5299 3.9891C16.497 3.98752 16.4639 3.98752 16.4309 3.9891H16.4319ZM3.9223 4.98549C3.69371 5.03233 3.48983 5.15495 3.34674 5.33165C3.20365 5.50835 3.13057 5.72774 3.14044 5.95098V14.9185C3.11672 15.0541 3.12421 15.193 3.16237 15.3256C3.20054 15.4582 3.26846 15.5812 3.36143 15.6862C3.4544 15.7911 3.57018 15.8754 3.7007 15.9333C3.83123 15.9911 3.97337 16.0211 4.11724 16.0211C4.26111 16.0211 4.40325 15.9911 4.53378 15.9333C4.6643 15.8754 4.78008 15.7911 4.87305 15.6862C4.96601 15.5812 5.03394 15.4582 5.07211 15.3256C5.11027 15.193 5.11775 15.0541 5.09403 14.9185V5.95098C5.09731 5.81809 5.07127 5.68604 5.01761 5.5634C4.96394 5.44077 4.88385 5.33032 4.78256 5.23924C4.68126 5.14816 4.56104 5.07849 4.4297 5.03477C4.29836 4.99105 4.15887 4.97425 4.02029 4.98549C3.9873 4.98391 3.95425 4.98391 3.92125 4.98549H3.9223ZM10.1771 5.98187C9.94854 6.02871 9.74466 6.15133 9.60157 6.32804C9.45848 6.50474 9.3854 6.72412 9.39527 6.94737V13.9221C9.37155 14.0577 9.37903 14.1966 9.4172 14.3292C9.45536 14.4618 9.52329 14.5848 9.61626 14.6898C9.70923 14.7947 9.825 14.8791 9.95553 14.9369C10.0861 14.9947 10.2282 15.0247 10.3721 15.0247C10.5159 15.0247 10.6581 14.9947 10.7886 14.9369C10.9191 14.8791 11.0349 14.7947 11.1279 14.6898C11.2208 14.5848 11.2888 14.4618 11.3269 14.3292C11.3651 14.1966 11.3726 14.0577 11.3489 13.9221V6.94737C11.3521 6.81448 11.3261 6.68242 11.2724 6.55979C11.2188 6.43716 11.1387 6.32671 11.0374 6.23563C10.9361 6.14454 10.8159 6.07487 10.6845 6.03115C10.5532 5.98743 10.4137 5.97064 10.2751 5.98187C10.2421 5.98029 10.2091 5.98029 10.1761 5.98187H10.1771ZM22.6868 5.98187C22.4582 6.02871 22.2543 6.15133 22.1112 6.32804C21.9681 6.50474 21.8951 6.72412 21.9049 6.94737V13.9221C21.8817 14.0575 21.8896 14.1962 21.928 14.3284C21.9664 14.4607 22.0345 14.5833 22.1275 14.6879C22.2204 14.7926 22.3361 14.8766 22.4664 14.9342C22.5968 14.9918 22.7386 15.0217 22.8822 15.0217C23.0258 15.0217 23.1677 14.9918 23.2981 14.9342C23.4284 14.8766 23.544 14.7926 23.637 14.6879C23.73 14.5833 23.798 14.4607 23.8365 14.3284C23.8749 14.1962 23.8828 14.0575 23.8596 13.9221V6.94737C23.8629 6.8143 23.8368 6.68206 23.783 6.55928C23.7292 6.4365 23.6489 6.32594 23.5474 6.23483C23.4459 6.14371 23.3254 6.07409 23.1938 6.0305C23.0622 5.98691 22.9225 5.97034 22.7837 5.98187C22.7514 5.98036 22.7191 5.98036 22.6868 5.98187ZM0.794884 7.97464C0.566298 8.02149 0.362419 8.14411 0.219328 8.32081C0.0762374 8.49751 0.00316067 8.7169 0.0130309 8.94014V11.9293C-0.0101875 12.0647 -0.00230997 12.2034 0.0361174 12.3356C0.0745447 12.4679 0.142603 12.5906 0.235573 12.6952C0.328544 12.7998 0.444203 12.8838 0.574533 12.9414C0.704863 12.9991 0.846746 13.0289 0.990347 13.0289C1.13395 13.0289 1.27583 12.9991 1.40616 12.9414C1.53649 12.8838 1.65215 12.7998 1.74512 12.6952C1.83809 12.5906 1.90615 12.4679 1.94458 12.3356C1.98301 12.2034 1.99088 12.0647 1.96766 11.9293V8.94014C1.97097 8.80707 1.94488 8.67483 1.89109 8.55205C1.8373 8.42927 1.75702 8.31871 1.65549 8.2276C1.55397 8.13649 1.43348 8.06686 1.30189 8.02327C1.1703 7.97969 1.03058 7.96312 0.891834 7.97464C0.85919 7.9731 0.826486 7.9731 0.793842 7.97464H0.794884ZM13.3045 7.97464C13.076 8.02149 12.8721 8.14411 12.729 8.32081C12.5859 8.49751 12.5128 8.7169 12.5227 8.94014V11.9293C12.499 12.0649 12.5064 12.2039 12.5446 12.3365C12.5828 12.469 12.6507 12.5921 12.7437 12.697C12.8366 12.802 12.9524 12.8863 13.0829 12.9441C13.2135 13.002 13.3556 13.0319 13.4995 13.0319C13.6433 13.0319 13.7855 13.002 13.916 12.9441C14.0465 12.8863 14.1623 12.802 14.2553 12.697C14.3483 12.5921 14.4162 12.469 14.4543 12.3365C14.4925 12.2039 14.5 12.0649 14.4763 11.9293V8.94014C14.4796 8.80725 14.4535 8.67519 14.3998 8.55256C14.3462 8.42993 14.2661 8.31948 14.1648 8.2284C14.0635 8.13732 13.9433 8.06765 13.8119 8.02393C13.6806 7.9802 13.5411 7.96341 13.4025 7.97464C13.3695 7.97307 13.3365 7.97307 13.3035 7.97464H13.3045ZM25.8142 7.97464C25.5856 8.02149 25.3817 8.14411 25.2386 8.32081C25.0955 8.49751 25.0225 8.7169 25.0323 8.94014V11.9293C25.0091 12.0647 25.017 12.2034 25.0554 12.3356C25.0938 12.4679 25.1619 12.5906 25.2549 12.6952C25.3478 12.7998 25.4635 12.8838 25.5938 12.9414C25.7242 12.9991 25.8661 13.0289 26.0097 13.0289C26.1533 13.0289 26.2951 12.9991 26.4255 12.9414C26.5558 12.8838 26.6715 12.7998 26.7644 12.6952C26.8574 12.5906 26.9255 12.4679 26.9639 12.3356C27.0023 12.2034 27.0102 12.0647 26.987 11.9293V8.94014C26.9903 8.80707 26.9642 8.67483 26.9104 8.55205C26.8566 8.42927 26.7763 8.31871 26.6748 8.2276C26.5733 8.13649 26.4528 8.06686 26.3212 8.02327C26.1896 7.97969 26.0499 7.96312 25.9111 7.97464C25.8788 7.97313 25.8465 7.97313 25.8142 7.97464Z" fill="#999999"/>
<path d="M44.5594 0.00355601C44.3308 0.0503979 44.1269 0.17302 43.9838 0.349721C43.8407 0.526421 43.7676 0.745808 43.7775 0.969054V19.9004C43.7543 20.0358 43.7622 20.1745 43.8006 20.3067C43.839 20.439 43.9071 20.5617 44.0001 20.6663C44.093 20.7709 44.2087 20.8549 44.339 20.9125C44.4693 20.9701 44.6112 21 44.7548 21C44.8984 21 45.0403 20.9701 45.1706 20.9125C45.301 20.8549 45.4166 20.7709 45.5096 20.6663C45.6026 20.5617 45.6706 20.439 45.7091 20.3067C45.7475 20.1745 45.7554 20.0358 45.7321 19.9004V0.969054C45.7355 0.835982 45.7094 0.70374 45.6556 0.580961C45.6018 0.458181 45.5215 0.347626 45.42 0.256512C45.3184 0.165398 45.198 0.0957747 45.0664 0.0521875C44.9348 0.00860022 44.7951 -0.00797097 44.6563 0.00355601C44.624 0.00204322 44.5917 0.00204322 44.5594 0.00355601V0.00355601ZM32.0497 0.999942C31.8211 1.04678 31.6172 1.16941 31.4742 1.34611C31.3311 1.52281 31.258 1.74219 31.2679 1.96544V18.904C31.2446 19.0394 31.2525 19.1781 31.2909 19.3103C31.3294 19.4426 31.3974 19.5653 31.4904 19.6699C31.5834 19.7745 31.699 19.8585 31.8294 19.9161C31.9597 19.9738 32.1016 20.0036 32.2452 20.0036C32.3888 20.0036 32.5307 19.9738 32.661 19.9161C32.7913 19.8585 32.907 19.7745 32.9999 19.6699C33.0929 19.5653 33.161 19.4426 33.1994 19.3103C33.2378 19.1781 33.2457 19.0394 33.2225 18.904V1.96544C33.2258 1.83237 33.1997 1.70013 33.1459 1.57735C33.0921 1.45457 33.0118 1.34401 32.9103 1.2529C32.8088 1.16178 32.6883 1.09216 32.5567 1.04857C32.4251 1.00499 32.2854 0.988415 32.1467 0.999942C32.1144 0.998429 32.082 0.998429 32.0497 0.999942V0.999942ZM41.4319 3.9891C41.2034 4.03594 40.9995 4.15856 40.8564 4.33526C40.7133 4.51196 40.6402 4.73135 40.6501 4.9546V15.9148C40.6264 16.0505 40.6339 16.1894 40.672 16.322C40.7102 16.4546 40.7781 16.5776 40.8711 16.6826C40.9641 16.7875 41.0798 16.8718 41.2104 16.9297C41.3409 16.9875 41.483 17.0175 41.6269 17.0175C41.7708 17.0175 41.9129 16.9875 42.0434 16.9297C42.174 16.8718 42.2897 16.7875 42.3827 16.6826C42.4757 16.5776 42.5436 16.4546 42.5818 16.322C42.6199 16.1894 42.6274 16.0505 42.6037 15.9148V4.9546C42.607 4.82171 42.5809 4.68965 42.5273 4.56702C42.4736 4.44439 42.3935 4.33394 42.2922 4.24285C42.1909 4.15177 42.0707 4.0821 41.9394 4.03838C41.808 3.99466 41.6685 3.97787 41.5299 3.9891C41.497 3.98752 41.4639 3.98752 41.4309 3.9891H41.4319ZM28.9223 4.98549C28.6937 5.03233 28.4898 5.15495 28.3467 5.33165C28.2037 5.50835 28.1306 5.72774 28.1404 5.95098V14.9185C28.1167 15.0541 28.1242 15.193 28.1624 15.3256C28.2005 15.4582 28.2685 15.5812 28.3614 15.6862C28.4544 15.7911 28.5702 15.8754 28.7007 15.9333C28.8312 15.9911 28.9734 16.0211 29.1172 16.0211C29.2611 16.0211 29.4033 15.9911 29.5338 15.9333C29.6643 15.8754 29.7801 15.7911 29.873 15.6862C29.966 15.5812 30.0339 15.4582 30.0721 15.3256C30.1103 15.193 30.1178 15.0541 30.094 14.9185V5.95098C30.0973 5.81809 30.0713 5.68604 30.0176 5.5634C29.9639 5.44077 29.8839 5.33032 29.7826 5.23924C29.6813 5.14816 29.561 5.07849 29.4297 5.03477C29.2984 4.99105 29.1589 4.97425 29.0203 4.98549C28.9873 4.98391 28.9542 4.98391 28.9213 4.98549H28.9223ZM35.1771 5.98187C34.9485 6.02871 34.7447 6.15133 34.6016 6.32804C34.4585 6.50474 34.3854 6.72412 34.3953 6.94737V13.9221C34.3716 14.0577 34.379 14.1966 34.4172 14.3292C34.4554 14.4618 34.5233 14.5848 34.6163 14.6898C34.7092 14.7947 34.825 14.8791 34.9555 14.9369C35.0861 14.9947 35.2282 15.0247 35.3721 15.0247C35.5159 15.0247 35.6581 14.9947 35.7886 14.9369C35.9191 14.8791 36.0349 14.7947 36.1279 14.6898C36.2208 14.5848 36.2888 14.4618 36.3269 14.3292C36.3651 14.1966 36.3726 14.0577 36.3489 13.9221V6.94737C36.3521 6.81448 36.3261 6.68242 36.2724 6.55979C36.2188 6.43716 36.1387 6.32671 36.0374 6.23563C35.9361 6.14454 35.8159 6.07487 35.6845 6.03115C35.5532 5.98743 35.4137 5.97064 35.2751 5.98187C35.2421 5.98029 35.2091 5.98029 35.1761 5.98187H35.1771ZM47.6868 5.98187C47.4582 6.02871 47.2543 6.15133 47.1112 6.32804C46.9681 6.50474 46.8951 6.72412 46.9049 6.94737V13.9221C46.8817 14.0575 46.8896 14.1962 46.928 14.3284C46.9664 14.4607 47.0345 14.5833 47.1275 14.6879C47.2204 14.7926 47.3361 14.8766 47.4664 14.9342C47.5968 14.9918 47.7386 15.0217 47.8822 15.0217C48.0258 15.0217 48.1677 14.9918 48.2981 14.9342C48.4284 14.8766 48.544 14.7926 48.637 14.6879C48.73 14.5833 48.798 14.4607 48.8365 14.3284C48.8749 14.1962 48.8828 14.0575 48.8596 13.9221V6.94737C48.8629 6.8143 48.8368 6.68206 48.783 6.55928C48.7292 6.4365 48.6489 6.32594 48.5474 6.23483C48.4459 6.14371 48.3254 6.07409 48.1938 6.0305C48.0622 5.98691 47.9225 5.97034 47.7837 5.98187C47.7514 5.98036 47.7191 5.98036 47.6868 5.98187ZM25.7949 7.97464C25.5663 8.02149 25.3624 8.14411 25.2193 8.32081C25.0762 8.49751 25.0032 8.7169 25.013 8.94014V11.9293C24.9898 12.0647 24.9977 12.2034 25.0361 12.3356C25.0745 12.4679 25.1426 12.5906 25.2356 12.6952C25.3285 12.7998 25.4442 12.8838 25.5745 12.9414C25.7049 12.9991 25.8467 13.0289 25.9903 13.0289C26.1339 13.0289 26.2758 12.9991 26.4062 12.9414C26.5365 12.8838 26.6522 12.7998 26.7451 12.6952C26.8381 12.5906 26.9062 12.4679 26.9446 12.3356C26.983 12.2034 26.9909 12.0647 26.9677 11.9293V8.94014C26.971 8.80707 26.9449 8.67483 26.8911 8.55205C26.8373 8.42927 26.757 8.31871 26.6555 8.2276C26.554 8.13649 26.4335 8.06686 26.3019 8.02327C26.1703 7.97969 26.0306 7.96312 25.8918 7.97464C25.8592 7.9731 25.8265 7.9731 25.7938 7.97464H25.7949ZM38.3045 7.97464C38.076 8.02149 37.8721 8.14411 37.729 8.32081C37.5859 8.49751 37.5128 8.7169 37.5227 8.94014V11.9293C37.499 12.0649 37.5064 12.2039 37.5446 12.3365C37.5828 12.469 37.6507 12.5921 37.7437 12.697C37.8366 12.802 37.9524 12.8863 38.0829 12.9441C38.2135 13.002 38.3556 13.0319 38.4995 13.0319C38.6433 13.0319 38.7855 13.002 38.916 12.9441C39.0465 12.8863 39.1623 12.802 39.2553 12.697C39.3483 12.5921 39.4162 12.469 39.4543 12.3365C39.4925 12.2039 39.5 12.0649 39.4763 11.9293V8.94014C39.4796 8.80725 39.4535 8.67519 39.3998 8.55256C39.3462 8.42993 39.2661 8.31948 39.1648 8.2284C39.0635 8.13732 38.9433 8.06765 38.8119 8.02393C38.6806 7.9802 38.5411 7.96341 38.4025 7.97464C38.3695 7.97307 38.3365 7.97307 38.3035 7.97464H38.3045ZM50.8142 7.97464C50.5856 8.02149 50.3817 8.14411 50.2386 8.32081C50.0955 8.49751 50.0225 8.7169 50.0323 8.94014V11.9293C50.0091 12.0647 50.017 12.2034 50.0554 12.3356C50.0938 12.4679 50.1619 12.5906 50.2549 12.6952C50.3478 12.7998 50.4635 12.8838 50.5938 12.9414C50.7242 12.9991 50.8661 13.0289 51.0097 13.0289C51.1533 13.0289 51.2951 12.9991 51.4255 12.9414C51.5558 12.8838 51.6715 12.7998 51.7644 12.6952C51.8574 12.5906 51.9255 12.4679 51.9639 12.3356C52.0023 12.2034 52.0102 12.0647 51.987 11.9293V8.94014C51.9903 8.80707 51.9642 8.67483 51.9104 8.55205C51.8566 8.42927 51.7763 8.31871 51.6748 8.2276C51.5733 8.13649 51.4528 8.06686 51.3212 8.02327C51.1896 7.97969 51.0499 7.96312 50.9111 7.97464C50.8788 7.97313 50.8465 7.97313 50.8142 7.97464Z" fill="#999999"/>
<path d="M65.8349 0.00355601C65.6148 0.0503979 65.4185 0.17302 65.2807 0.349721C65.1429 0.526421 65.0725 0.745808 65.082 0.969054V19.9004C65.0597 20.0358 65.0673 20.1745 65.1043 20.3067C65.1413 20.439 65.2068 20.5617 65.2963 20.6663C65.3859 20.7709 65.4972 20.8549 65.6228 20.9125C65.7483 20.9701 65.8849 21 66.0232 21C66.1614 21 66.2981 20.9701 66.4236 20.9125C66.5491 20.8549 66.6605 20.7709 66.75 20.6663C66.8395 20.5617 66.9051 20.439 66.9421 20.3067C66.9791 20.1745 66.9866 20.0358 66.9643 19.9004V0.969054C66.9675 0.835982 66.9423 0.70374 66.8905 0.580961C66.8387 0.458181 66.7614 0.347626 66.6637 0.256512C66.5659 0.165398 66.4499 0.0957747 66.3232 0.0521875C66.1965 0.00860022 66.0619 -0.00797097 65.9283 0.00355601C65.8972 0.00204322 65.866 0.00204322 65.8349 0.00355601V0.00355601ZM53.7886 0.999942C53.5685 1.04678 53.3722 1.16941 53.2344 1.34611C53.0966 1.52281 53.0262 1.74219 53.0357 1.96544V18.904C53.0134 19.0394 53.0209 19.1781 53.0579 19.3103C53.095 19.4426 53.1605 19.5653 53.25 19.6699C53.3395 19.7745 53.4509 19.8585 53.5764 19.9161C53.7019 19.9738 53.8386 20.0036 53.9768 20.0036C54.1151 20.0036 54.2517 19.9738 54.3772 19.9161C54.5028 19.8585 54.6141 19.7745 54.7037 19.6699C54.7932 19.5653 54.8587 19.4426 54.8957 19.3103C54.9327 19.1781 54.9403 19.0394 54.918 18.904V1.96544C54.9211 1.83237 54.896 1.70013 54.8442 1.57735C54.7924 1.45457 54.7151 1.34401 54.6173 1.2529C54.5196 1.16178 54.4036 1.09216 54.2768 1.04857C54.1501 1.00499 54.0156 0.988415 53.882 0.999942C53.8509 0.998429 53.8197 0.998429 53.7886 0.999942V0.999942ZM62.8234 3.9891C62.6032 4.03594 62.4069 4.15856 62.2691 4.33526C62.1313 4.51196 62.061 4.73135 62.0705 4.9546V15.9148C62.0476 16.0505 62.0548 16.1894 62.0916 16.322C62.1283 16.4546 62.1937 16.5776 62.2833 16.6826C62.3728 16.7875 62.4843 16.8718 62.61 16.9297C62.7357 16.9875 62.8725 17.0175 63.0111 17.0175C63.1496 17.0175 63.2865 16.9875 63.4122 16.9297C63.5379 16.8718 63.6494 16.7875 63.7389 16.6826C63.8284 16.5776 63.8938 16.4546 63.9306 16.322C63.9673 16.1894 63.9745 16.0505 63.9517 15.9148V4.9546C63.9549 4.82171 63.9298 4.68965 63.8781 4.56702C63.8264 4.44439 63.7493 4.33394 63.6518 4.24285C63.5542 4.15177 63.4384 4.0821 63.312 4.03838C63.1855 3.99466 63.0512 3.97787 62.9177 3.9891C62.886 3.98752 62.8541 3.98752 62.8224 3.9891H62.8234ZM50.777 4.98549C50.5569 5.03233 50.3606 5.15495 50.2228 5.33165C50.085 5.50835 50.0146 5.72774 50.0241 5.95098V14.9185C50.0013 15.0541 50.0085 15.193 50.0452 15.3256C50.082 15.4582 50.1474 15.5812 50.2369 15.6862C50.3265 15.7911 50.4379 15.8754 50.5636 15.9333C50.6893 15.9911 50.8262 16.0211 50.9647 16.0211C51.1033 16.0211 51.2402 15.9911 51.3659 15.9333C51.4916 15.8754 51.603 15.7911 51.6926 15.6862C51.7821 15.5812 51.8475 15.4582 51.8843 15.3256C51.921 15.193 51.9282 15.0541 51.9054 14.9185V5.95098C51.9085 5.81809 51.8834 5.68604 51.8318 5.5634C51.7801 5.44077 51.703 5.33032 51.6054 5.23924C51.5079 5.14816 51.3921 5.07849 51.2656 5.03477C51.1392 4.99105 51.0048 4.97425 50.8714 4.98549C50.8396 4.98391 50.8078 4.98391 50.776 4.98549H50.777ZM56.8002 5.98187C56.5801 6.02871 56.3837 6.15133 56.246 6.32804C56.1082 6.50474 56.0378 6.72412 56.0473 6.94737V13.9221C56.0245 14.0577 56.0317 14.1966 56.0684 14.3292C56.1052 14.4618 56.1706 14.5848 56.2601 14.6898C56.3496 14.7947 56.4611 14.8791 56.5868 14.9369C56.7125 14.9947 56.8494 15.0247 56.9879 15.0247C57.1265 15.0247 57.2633 14.9947 57.389 14.9369C57.5147 14.8791 57.6262 14.7947 57.7157 14.6898C57.8053 14.5848 57.8707 14.4618 57.9074 14.3292C57.9442 14.1966 57.9514 14.0577 57.9285 13.9221V6.94737C57.9317 6.81448 57.9066 6.68242 57.8549 6.55979C57.8033 6.43716 57.7261 6.32671 57.6286 6.23563C57.5311 6.14454 57.4153 6.07487 57.2888 6.03115C57.1623 5.98743 57.028 5.97064 56.8946 5.98187C56.8628 5.98029 56.831 5.98029 56.7992 5.98187H56.8002ZM68.8465 5.98187C68.6264 6.02871 68.4301 6.15133 68.2923 6.32804C68.1545 6.50474 68.0841 6.72412 68.0936 6.94737V13.9221C68.0713 14.0575 68.0789 14.1962 68.1159 14.3284C68.1529 14.4607 68.2184 14.5833 68.3079 14.6879C68.3975 14.7926 68.5088 14.8766 68.6343 14.9342C68.7598 14.9918 68.8965 15.0217 69.0347 15.0217C69.173 15.0217 69.3097 14.9918 69.4352 14.9342C69.5607 14.8766 69.672 14.7926 69.7616 14.6879C69.8511 14.5833 69.9166 14.4607 69.9536 14.3284C69.9906 14.1962 69.9982 14.0575 69.9759 13.9221V6.94737C69.9791 6.8143 69.9539 6.68206 69.9021 6.55928C69.8503 6.4365 69.773 6.32594 69.6753 6.23483C69.5775 6.14371 69.4615 6.07409 69.3348 6.0305C69.208 5.98691 69.0735 5.97034 68.9399 5.98187C68.9088 5.98036 68.8776 5.98036 68.8465 5.98187ZM47.7654 7.97464C47.5453 8.02149 47.349 8.14411 47.2112 8.32081C47.0734 8.49751 47.003 8.7169 47.0125 8.94014V11.9293C46.9902 12.0647 46.9978 12.2034 47.0348 12.3356C47.0718 12.4679 47.1373 12.5906 47.2268 12.6952C47.3164 12.7998 47.4278 12.8838 47.5533 12.9414C47.6788 12.9991 47.8154 13.0289 47.9537 13.0289C48.092 13.0289 48.2286 12.9991 48.3541 12.9414C48.4796 12.8838 48.591 12.7998 48.6805 12.6952C48.77 12.5906 48.8356 12.4679 48.8726 12.3356C48.9096 12.2034 48.9171 12.0647 48.8948 11.9293V8.94014C48.898 8.80707 48.8728 8.67483 48.821 8.55205C48.7693 8.42927 48.6919 8.31871 48.5942 8.2276C48.4964 8.13649 48.3804 8.06686 48.2537 8.02327C48.127 7.97969 47.9924 7.96312 47.8588 7.97464C47.8274 7.9731 47.7959 7.9731 47.7644 7.97464H47.7654ZM59.8118 7.97464C59.5917 8.02149 59.3953 8.14411 59.2575 8.32081C59.1197 8.49751 59.0494 8.7169 59.0589 8.94014V11.9293C59.036 12.0649 59.0432 12.2039 59.08 12.3365C59.1167 12.469 59.1822 12.5921 59.2717 12.697C59.3612 12.802 59.4727 12.8863 59.5984 12.9441C59.7241 13.002 59.861 13.0319 59.9995 13.0319C60.138 13.0319 60.2749 13.002 60.4006 12.9441C60.5263 12.8863 60.6378 12.802 60.7273 12.697C60.8168 12.5921 60.8823 12.469 60.919 12.3365C60.9558 12.2039 60.963 12.0649 60.9401 11.9293V8.94014C60.9433 8.80725 60.9182 8.67519 60.8665 8.55256C60.8148 8.42993 60.7377 8.31948 60.6402 8.2284C60.5426 8.13732 60.4269 8.06765 60.3004 8.02393C60.1739 7.9802 60.0396 7.96341 59.9061 7.97464C59.8744 7.97307 59.8425 7.97307 59.8108 7.97464H59.8118ZM71.8581 7.97464C71.638 8.02149 71.4417 8.14411 71.3039 8.32081C71.1661 8.49751 71.0957 8.7169 71.1052 8.94014V11.9293C71.0829 12.0647 71.0904 12.2034 71.1274 12.3356C71.1644 12.4679 71.23 12.5906 71.3195 12.6952C71.409 12.7998 71.5204 12.8838 71.6459 12.9414C71.7714 12.9991 71.9081 13.0289 72.0463 13.0289C72.1846 13.0289 72.3212 12.9991 72.4467 12.9414C72.5723 12.8838 72.6836 12.7998 72.7732 12.6952C72.8627 12.5906 72.9282 12.4679 72.9652 12.3356C73.0022 12.2034 73.0098 12.0647 72.9875 11.9293V8.94014C72.9906 8.80707 72.9655 8.67483 72.9137 8.55205C72.8619 8.42927 72.7846 8.31871 72.6868 8.2276C72.5891 8.13649 72.4731 8.06686 72.3463 8.02327C72.2196 7.97969 72.0851 7.96312 71.9515 7.97464C71.9204 7.97313 71.8892 7.97313 71.8581 7.97464Z" fill="#999999"/>
</svg>
