<svg width="24" height="24" viewBox="0 0 24 24" fill="none" xmlns="http://www.w3.org/2000/svg">
<path d="M19.0001 20H5.00005C4.73484 20 4.48048 20.1053 4.29295 20.2929C4.10541 20.4804 4.00005 20.7348 4.00005 21C4.00005 21.2652 4.10541 21.5196 4.29295 21.7071C4.48048 21.8946 4.73484 22 5.00005 22H19.0001C19.2653 22 19.5196 21.8946 19.7072 21.7071C19.8947 21.5196 20.0001 21.2652 20.0001 21C20.0001 20.7348 19.8947 20.4804 19.7072 20.2929C19.5196 20.1053 19.2653 20 19.0001 20ZM5.00005 18H5.09005L9.26005 17.62C9.71685 17.5745 10.1441 17.3732 10.4701 17.05L19.4701 8.04998C19.8194 7.68095 20.0082 7.18849 19.995 6.68052C19.9819 6.17254 19.768 5.69049 19.4001 5.33998L16.6601 2.59998C16.3024 2.26408 15.8338 2.07134 15.3434 2.05843C14.8529 2.04553 14.3748 2.21335 14.0001 2.52998L5.00005 11.53C4.67682 11.8559 4.47556 12.2832 4.43005 12.74L4.00005 16.91C3.98658 17.0564 4.00559 17.2041 4.05571 17.3424C4.10584 17.4806 4.18585 17.6062 4.29005 17.71C4.38349 17.8027 4.49431 17.876 4.61615 17.9258C4.73798 17.9755 4.86845 18.0007 5.00005 18ZM15.2701 3.99998L18.0001 6.72998L16.0001 8.67998L13.3201 5.99998L15.2701 3.99998ZM6.37005 12.91L12.0001 7.31998L14.7001 10.02L9.10005 15.62L6.10005 15.9L6.37005 12.91Z" fill="#757575"/>
</svg>
