<svg width="21" height="21" viewBox="0 0 21 21" fill="none" xmlns="http://www.w3.org/2000/svg">
<path d="M10.5 19.6875C8.06332 19.6875 5.72645 18.7195 4.00346 16.9965C2.28047 15.2736 1.3125 12.9367 1.3125 10.5C1.3125 8.06332 2.28047 5.72645 4.00346 4.00346C5.72645 2.28047 8.06332 1.3125 10.5 1.3125C12.9367 1.3125 15.2736 2.28047 16.9965 4.00346C18.7195 5.72645 19.6875 8.06332 19.6875 10.5C19.6875 12.9367 18.7195 15.2736 16.9965 16.9965C15.2736 18.7195 12.9367 19.6875 10.5 19.6875ZM10.5 21C13.2848 21 15.9555 19.8938 17.9246 17.9246C19.8938 15.9555 21 13.2848 21 10.5C21 7.71523 19.8938 5.04451 17.9246 3.07538C15.9555 1.10625 13.2848 0 10.5 0C7.71523 0 5.04451 1.10625 3.07538 3.07538C1.10625 5.04451 0 7.71523 0 10.5C0 13.2848 1.10625 15.9555 3.07538 17.9246C5.04451 19.8938 7.71523 21 10.5 21V21Z" fill="#969696"/>
<path d="M5.624 12.5567C5.77473 12.4697 5.95385 12.4461 6.12197 12.4911C6.29008 12.5362 6.43342 12.6462 6.52044 12.7969C6.92353 13.4956 7.50357 14.0757 8.20219 14.479C8.9008 14.8822 9.69332 15.0942 10.4999 15.0937C11.3066 15.0942 12.0991 14.8822 12.7977 14.479C13.4963 14.0757 14.0764 13.4956 14.4794 12.7969C14.5222 12.7216 14.5795 12.6556 14.6479 12.6026C14.7163 12.5496 14.7945 12.5106 14.878 12.4879C14.9615 12.4652 15.0487 12.4593 15.1345 12.4705C15.2203 12.4816 15.3031 12.5096 15.3781 12.5529C15.453 12.5962 15.5187 12.6539 15.5712 12.7226C15.6238 12.7913 15.6623 12.8698 15.6844 12.9535C15.7065 13.0372 15.7119 13.1244 15.7001 13.2101C15.6884 13.2959 15.6598 13.3785 15.6161 13.4531C15.0978 14.3513 14.3521 15.0972 13.4539 15.6156C12.5558 16.134 11.537 16.4067 10.4999 16.4062C9.46293 16.4067 8.44409 16.134 7.54596 15.6156C6.64782 15.0972 5.90209 14.3513 5.38382 13.4531C5.2968 13.3024 5.27322 13.1233 5.31826 12.9552C5.3633 12.787 5.47328 12.6437 5.624 12.5567ZM9.18744 8.53125C9.18744 9.618 8.59944 10.5 7.87494 10.5C7.15044 10.5 6.56244 9.618 6.56244 8.53125C6.56244 7.4445 7.15044 6.5625 7.87494 6.5625C8.59944 6.5625 9.18744 7.4445 9.18744 8.53125ZM14.4374 8.53125C14.4374 9.618 14 10.5 13.1249 10.5C12.4004 10.5 11.8124 9.618 11.8124 8.53125C11.8124 7.4445 12.4004 6.5625 13.1249 6.5625C13.8494 6.5625 14.4374 7.4445 14.4374 8.53125Z" fill="#969696"/>
</svg>
