<svg width="30" height="30" viewBox="0 0 30 30" fill="none" xmlns="http://www.w3.org/2000/svg">
<path d="M8.59129 21.4112C6.28504 19.7737 4.46004 17.6437 3.42879 16.2987C3.14042 15.9275 2.98389 15.4707 2.98389 15.0006C2.98389 14.5305 3.14042 14.0738 3.42879 13.7025C5.29504 11.2662 9.77254 6.25 15 6.25C17.345 6.25 19.5375 7.25875 21.4125 8.5925" stroke="white" stroke-width="2" stroke-linecap="round" stroke-linejoin="round"/>
<path d="M12.5 23.38C13.3115 23.6216 14.1533 23.7461 15 23.75C20.2275 23.75 24.705 18.7338 26.5712 16.2975C26.8595 15.9259 27.0159 15.4689 27.0157 14.9985C27.0155 14.5282 26.8587 14.0713 26.57 13.7C25.9141 12.8444 25.2105 12.0264 24.4625 11.25M17.6625 12.3588C17.3154 12.0058 16.9018 11.7251 16.4456 11.5329C15.9895 11.3406 15.4998 11.2405 15.0047 11.2384C14.5097 11.2364 14.0192 11.3323 13.5614 11.5208C13.1037 11.7092 12.6878 11.9864 12.3377 12.3364C11.9876 12.6864 11.7103 13.1023 11.5217 13.56C11.3332 14.0177 11.2371 14.5082 11.2391 15.0032C11.241 15.4983 11.341 15.988 11.5331 16.4442C11.7253 16.9004 12.0059 17.314 12.3588 17.6612L17.6625 12.3588ZM5 25L25 5L5 25Z" stroke="white" stroke-width="2" stroke-linecap="round" stroke-linejoin="round"/>
</svg>
