<svg width="640" height="448" viewBox="0 0 640 448" fill="none" xmlns="http://www.w3.org/2000/svg">
<path d="M192 224C253.9 224 304 173.9 304 112C304 50.1 253.9 0 192 0C130.1 0 80 50.1 80 112C80 173.9 130.1 224 192 224ZM268.8 256H260.5C239.7 266 216.6 272 192 272C167.4 272 144.4 266 123.5 256H115.2C51.6 256 0 307.6 0 371.2V400C0 426.5 21.5 448 48 448H336C362.5 448 384 426.5 384 400V371.2C384 307.6 332.4 256 268.8 256ZM480 224C533 224 576 181 576 128C576 75 533 32 480 32C427 32 384 75 384 128C384 181 427 224 480 224ZM528 256H524.2C510.3 260.8 495.6 264 480 264C464.4 264 449.7 260.8 435.8 256H432C411.6 256 392.8 261.9 376.3 271.4C400.7 297.7 416 332.6 416 371.2V409.6C416 411.8 415.5 413.9 415.4 416H592C618.5 416 640 394.5 640 368C640 306.1 589.9 256 528 256Z" fill="white"/>
</svg>
