<svg width="45" height="45" viewBox="0 0 45 45" fill="none" xmlns="http://www.w3.org/2000/svg">
<path d="M22.5 2.8125C11.6279 2.8125 2.8125 11.6279 2.8125 22.5C2.8125 33.3721 11.6279 42.1875 22.5 42.1875C33.3721 42.1875 42.1875 33.3721 42.1875 22.5C42.1875 11.6279 33.3721 2.8125 22.5 2.8125ZM22.5 38.8477C13.4736 38.8477 6.15234 31.5264 6.15234 22.5C6.15234 13.4736 13.4736 6.15234 22.5 6.15234C31.5264 6.15234 38.8477 13.4736 38.8477 22.5C38.8477 31.5264 31.5264 38.8477 22.5 38.8477Z" fill="white"/>
<path d="M20.3906 14.7656C20.3906 15.3251 20.6129 15.8616 21.0084 16.2572C21.404 16.6528 21.9406 16.875 22.5 16.875C23.0594 16.875 23.596 16.6528 23.9916 16.2572C24.3871 15.8616 24.6094 15.3251 24.6094 14.7656C24.6094 14.2062 24.3871 13.6697 23.9916 13.2741C23.596 12.8785 23.0594 12.6563 22.5 12.6562C21.9406 12.6563 21.404 12.8785 21.0084 13.2741C20.6129 13.6697 20.3906 14.2062 20.3906 14.7656V14.7656ZM23.5547 19.6875H21.4453C21.252 19.6875 21.0938 19.8457 21.0938 20.0391V31.9922C21.0938 32.1855 21.252 32.3438 21.4453 32.3438H23.5547C23.748 32.3438 23.9062 32.1855 23.9062 31.9922V20.0391C23.9062 19.8457 23.748 19.6875 23.5547 19.6875Z" fill="white"/>
</svg>
