<svg width="13" height="10" viewBox="0 0 13 10" fill="none" xmlns="http://www.w3.org/2000/svg">
<path d="M10.455 0.45501C10.6663 0.253844 10.9475 0.142631 11.2392 0.144838C11.531 0.147046 11.8104 0.262501 12.0187 0.466842C12.2269 0.671183 12.3476 0.948426 12.3553 1.24007C12.363 1.53172 12.2571 1.81495 12.06 2.03001L6.07499 9.51501C5.97208 9.62586 5.84787 9.71481 5.70979 9.77656C5.57171 9.83831 5.4226 9.87157 5.27137 9.87437C5.12014 9.87718 4.9699 9.84945 4.82963 9.79286C4.68936 9.73627 4.56194 9.65197 4.45499 9.54501L0.485992 5.57601C0.375462 5.47302 0.286809 5.34882 0.225321 5.21082C0.163833 5.07282 0.13077 4.92385 0.128105 4.77279C0.12544 4.62174 0.153227 4.4717 0.209808 4.33161C0.26639 4.19153 0.350607 4.06428 0.457435 3.95745C0.564263 3.85062 0.691514 3.76641 0.831596 3.70983C0.971678 3.65324 1.12172 3.62546 1.27278 3.62812C1.42383 3.63079 1.5728 3.66385 1.7108 3.72534C1.8488 3.78683 1.973 3.87548 2.07599 3.98601L5.21699 7.12551L10.4265 0.488011C10.4359 0.476462 10.4459 0.465444 10.4565 0.45501H10.455Z" fill="#545892"/>
</svg>
