<svg width="13" height="8" viewBox="0 0 13 8" fill="none" xmlns="http://www.w3.org/2000/svg">
<path d="M6.96991 0.970012C7.11078 0.835901 7.29824 0.761759 7.49273 0.763231C7.68722 0.764703 7.87354 0.841673 8.01236 0.9779C8.15118 1.11413 8.23165 1.29896 8.23679 1.49339C8.24194 1.68782 8.17134 1.87664 8.03991 2.02001L4.04991 7.01001C3.9813 7.08391 3.8985 7.14321 3.80645 7.18438C3.71439 7.22554 3.61498 7.24772 3.51416 7.24959C3.41334 7.25146 3.31318 7.23297 3.21967 7.19524C3.12616 7.15752 3.04121 7.10132 2.96991 7.03001L0.323913 4.38401C0.250226 4.31535 0.191124 4.23255 0.150132 4.14055C0.10914 4.04855 0.0870986 3.94924 0.0853218 3.84854C0.083545 3.74783 0.10207 3.6478 0.139791 3.55441C0.177512 3.46103 0.233656 3.37619 0.304875 3.30497C0.376094 3.23376 0.460928 3.17761 0.554316 3.13989C0.647704 3.10217 0.747733 3.08364 0.848436 3.08542C0.949139 3.0872 1.04845 3.10924 1.14045 3.15023C1.23245 3.19122 1.31525 3.25033 1.38391 3.32401L3.47791 5.41701L6.94991 0.992013C6.95614 0.984292 6.96282 0.976946 6.96991 0.970012V0.970012ZM6.04991 6.11001L6.96991 7.03001C7.0412 7.10116 7.12608 7.15723 7.2195 7.19487C7.31292 7.2325 7.41296 7.25094 7.51366 7.24907C7.61436 7.2472 7.71365 7.22507 7.80561 7.184C7.89757 7.14293 7.98032 7.08376 8.04891 7.01001L12.0409 2.02001C12.1126 1.94921 12.1693 1.86469 12.2077 1.77149C12.246 1.67829 12.2651 1.57832 12.2639 1.47755C12.2628 1.37679 12.2413 1.27729 12.2008 1.18501C12.1603 1.09273 12.1017 1.00955 12.0283 0.940442C11.955 0.871335 11.8685 0.817716 11.7739 0.782788C11.6794 0.747861 11.5788 0.73234 11.4782 0.737154C11.3775 0.741967 11.2789 0.767016 11.1881 0.810805C11.0973 0.854593 11.0163 0.916222 10.9499 0.992013L7.47691 5.41701L6.99191 4.93101L6.04891 6.11001H6.04991Z" fill="#545892"/>
</svg>
