<svg width="19" height="10" viewBox="0 0 19 10" fill="none" xmlns="http://www.w3.org/2000/svg">
<path d="M10.455 0.455003C10.6663 0.253837 10.9475 0.142624 11.2392 0.144831C11.531 0.147039 11.8104 0.262494 12.0187 0.466835C12.2269 0.671176 12.3476 0.94842 12.3553 1.24006C12.363 1.53171 12.2571 1.81494 12.06 2.03L6.07499 9.515C5.97208 9.62585 5.84787 9.71481 5.70979 9.77655C5.57171 9.8383 5.4226 9.87157 5.27137 9.87437C5.12014 9.87717 4.9699 9.84944 4.82963 9.79285C4.68936 9.73626 4.56194 9.65196 4.45499 9.545L0.485992 5.576C0.375462 5.47301 0.286808 5.34881 0.225321 5.21081C0.163833 5.07281 0.13077 4.92384 0.128105 4.77279C0.12544 4.62173 0.153227 4.47169 0.209808 4.33161C0.26639 4.19152 0.350606 4.06427 0.457435 3.95745C0.564263 3.85062 0.691513 3.7664 0.831596 3.70982C0.971678 3.65324 1.12172 3.62545 1.27278 3.62812C1.42383 3.63078 1.5728 3.66384 1.7108 3.72533C1.8488 3.78682 1.973 3.87547 2.07599 3.986L5.21699 7.1255L10.425 0.488004C10.4343 0.476423 10.4444 0.465403 10.455 0.455003V0.455003ZM9.07499 8.165L10.455 9.545C10.5619 9.65173 10.6892 9.73583 10.8294 9.79228C10.9695 9.84874 11.1196 9.87639 11.2706 9.87359C11.4217 9.87079 11.5706 9.8376 11.7085 9.77599C11.8465 9.71438 11.9706 9.62562 12.0735 9.515L18.0615 2.03C18.1691 1.92381 18.2541 1.79702 18.3116 1.65722C18.3691 1.51741 18.3978 1.36746 18.396 1.21631C18.3943 1.06517 18.3621 0.915925 18.3013 0.777501C18.2406 0.639076 18.1526 0.514308 18.0426 0.410647C17.9326 0.306987 17.8028 0.226559 17.661 0.174167C17.5192 0.121776 17.3684 0.0984951 17.2174 0.105715C17.0664 0.112936 16.9184 0.150509 16.7823 0.216192C16.6461 0.281874 16.5246 0.374318 16.425 0.488004L11.2155 7.1255L10.488 6.3965L9.07349 8.165H9.07499Z" fill="#545892"/>
</svg>
