<svg width="16" height="16" viewBox="0 0 16 16" fill="none" xmlns="http://www.w3.org/2000/svg">
<path d="M9.828 0.722001C9.89371 0.721884 9.95879 0.734718 10.0195 0.759769C10.0803 0.784821 10.1355 0.821599 10.182 0.868001L15.132 5.818C15.2257 5.91176 15.2784 6.03892 15.2784 6.1715C15.2784 6.30408 15.2257 6.43124 15.132 6.525C14.652 7.005 14.06 7.113 13.629 7.113C13.452 7.113 13.294 7.095 13.169 7.074L10.035 10.208C10.1175 10.5404 10.171 10.8793 10.195 11.221C10.241 11.923 10.163 12.908 9.47501 13.596C9.38124 13.6897 9.25409 13.7424 9.1215 13.7424C8.98892 13.7424 8.86177 13.6897 8.768 13.596L5.939 10.768L2.757 13.95C2.562 14.145 1.538 14.852 1.343 14.657C1.148 14.462 1.855 13.437 2.05 13.243L5.232 10.061L2.404 7.232C2.31027 7.13824 2.25761 7.01108 2.25761 6.8785C2.25761 6.74592 2.31027 6.61876 2.404 6.525C3.092 5.837 4.077 5.758 4.779 5.805C5.12066 5.82894 5.4596 5.88247 5.792 5.965L8.926 2.832C8.89985 2.67972 8.88647 2.52551 8.886 2.371C8.886 1.941 8.99401 1.349 9.47501 0.868001C9.56871 0.774532 9.69565 0.722029 9.828 0.722001V0.722001ZM9.95 2.834V2.832V2.834ZM9.95 2.832V2.834C9.97888 2.92197 9.98277 3.01623 9.96123 3.10628C9.93969 3.19633 9.89357 3.27862 9.828 3.344L6.293 6.878C6.22732 6.9434 6.14475 6.98926 6.05452 7.01045C5.96428 7.03164 5.86993 7.02733 5.782 6.998H5.78L5.766 6.994C5.67087 6.9655 5.57482 6.94015 5.478 6.918C5.22644 6.85932 4.97065 6.82053 4.713 6.802C4.291 6.774 3.877 6.81 3.538 6.952L9.048 12.461C9.189 12.121 9.225 11.708 9.197 11.286C9.17153 10.9287 9.10715 10.5753 9.005 10.232L9.001 10.219V10.218C8.97148 10.1299 8.96706 10.0354 8.98826 9.94495C9.00945 9.85452 9.05542 9.77177 9.121 9.706L12.657 6.171C12.7251 6.10249 12.8116 6.05518 12.906 6.03477C13.0004 6.01436 13.0987 6.02174 13.189 6.056L13.285 6.078C13.372 6.095 13.493 6.112 13.629 6.112C13.743 6.112 13.859 6.101 13.972 6.072L9.927 2.028C9.898 2.141 9.887 2.258 9.887 2.371C9.88749 2.52638 9.90834 2.68103 9.94901 2.831L9.95 2.832Z" fill="white"/>
</svg>
