<svg width="23" height="23" viewBox="0 0 23 23" fill="none" xmlns="http://www.w3.org/2000/svg">
<path d="M22.0168 10.4115L1.39177 0.0990111C1.23011 0.0181674 1.04854 -0.0142249 0.868904 0.00573459C0.689268 0.0256941 0.519232 0.0971544 0.379268 0.211511C0.245603 0.323535 0.145836 0.470623 0.0911829 0.63624C0.0365295 0.801856 0.0291565 0.979434 0.0698929 1.14901L2.55427 10.3084L13.1574 10.391C13.7822 10.8285 13.7822 11.7459 13.1574 12.1834C9.01662 12.1834 6.69505 12.1834 2.55427 12.1834L0.0323929 21.3146C-0.0058323 21.4562 -0.0102944 21.6049 0.0193656 21.7485C0.0490256 21.8922 0.11198 22.0269 0.203167 22.1418C0.294354 22.2566 0.411228 22.3485 0.544393 22.41C0.677558 22.4716 0.823297 22.501 0.969893 22.4959C1.11665 22.495 1.26115 22.4597 1.39177 22.3928L22.0168 12.0803C22.1703 12.0016 22.2992 11.8821 22.3892 11.7348C22.4792 11.5876 22.5268 11.4184 22.5268 11.2459C22.5268 11.0733 22.4792 10.9041 22.3892 10.7569C22.2992 10.6097 22.1703 10.4902 22.0168 10.4115Z" fill="#54577E"/>
</svg>
