<svg width="17" height="12" viewBox="0 0 17 12" fill="none" xmlns="http://www.w3.org/2000/svg">
<path d="M7.39625 0.437481C7.50214 0.488492 7.5915 0.568328 7.65407 0.667824C7.71664 0.76732 7.74989 0.882445 7.75 0.999981V11C7.74983 11.1176 7.71649 11.2328 7.65379 11.3323C7.5911 11.4318 7.50161 11.5116 7.39559 11.5625C7.28958 11.6134 7.17135 11.6334 7.0545 11.6201C6.93764 11.6068 6.8269 11.5609 6.735 11.4875L3.78125 9.12498H0.875C0.70924 9.12498 0.550268 9.05913 0.433058 8.94192C0.315848 8.82471 0.25 8.66574 0.25 8.49998V3.49998C0.25 3.33422 0.315848 3.17525 0.433058 3.05804C0.550268 2.94083 0.70924 2.87498 0.875 2.87498H3.78125L6.735 0.512481C6.82696 0.438966 6.93782 0.392922 7.05481 0.379653C7.1718 0.366385 7.29016 0.38643 7.39625 0.437481ZM6.5 2.29998L4.39 3.98748C4.27937 4.07624 4.14184 4.12473 4 4.12498H1.5V7.87498H4C4.14184 7.87523 4.27937 7.92372 4.39 8.01248L6.5 9.69998V2.29998ZM16.3175 3.05748C16.3757 3.11554 16.4219 3.18451 16.4534 3.26044C16.4849 3.33637 16.5011 3.41777 16.5011 3.49998C16.5011 3.58219 16.4849 3.66359 16.4534 3.73952C16.4219 3.81545 16.3757 3.88442 16.3175 3.94248L14.2587 5.99998L16.3175 8.05748C16.4349 8.17484 16.5008 8.33401 16.5008 8.49998C16.5008 8.66595 16.4349 8.82512 16.3175 8.94248C16.2001 9.05984 16.041 9.12577 15.875 9.12577C15.709 9.12577 15.5499 9.05984 15.4325 8.94248L13.375 6.88373L11.3175 8.94248C11.2001 9.05984 11.041 9.12577 10.875 9.12577C10.709 9.12577 10.5499 9.05984 10.4325 8.94248C10.3151 8.82512 10.2492 8.66595 10.2492 8.49998C10.2492 8.33401 10.3151 8.17484 10.4325 8.05748L12.4912 5.99998L10.4325 3.94248C10.3744 3.88437 10.3283 3.81539 10.2968 3.73946C10.2654 3.66354 10.2492 3.58216 10.2492 3.49998C10.2492 3.4178 10.2654 3.33643 10.2968 3.2605C10.3283 3.18458 10.3744 3.11559 10.4325 3.05748C10.5499 2.94012 10.709 2.87419 10.875 2.87419C10.9572 2.87419 11.0386 2.89038 11.1145 2.92183C11.1904 2.95328 11.2594 2.99937 11.3175 3.05748L13.375 5.11623L15.4325 3.05748C15.4906 2.99928 15.5595 2.9531 15.6355 2.92159C15.7114 2.89008 15.7928 2.87386 15.875 2.87386C15.9572 2.87386 16.0386 2.89008 16.1145 2.92159C16.1905 2.9531 16.2594 2.99928 16.3175 3.05748Z" fill="white"/>
</svg>
