<svg width="20" height="20" viewBox="0 0 20 20" fill="none" xmlns="http://www.w3.org/2000/svg">
<path d="M8.39625 4.43748C8.50214 4.48849 8.5915 4.56833 8.65407 4.66782C8.71664 4.76732 8.74989 4.88244 8.75 4.99998V15C8.74983 15.1176 8.71649 15.2328 8.65379 15.3323C8.5911 15.4318 8.5016 15.5116 8.39559 15.5625C8.28958 15.6134 8.17135 15.6334 8.0545 15.6201C7.93764 15.6068 7.8269 15.5609 7.735 15.4875L4.78125 13.125H1.875C1.70924 13.125 1.55027 13.0591 1.43306 12.9419C1.31585 12.8247 1.25 12.6657 1.25 12.5V7.49998C1.25 7.33422 1.31585 7.17525 1.43306 7.05804C1.55027 6.94083 1.70924 6.87498 1.875 6.87498H4.78125L7.735 4.51248C7.82696 4.43897 7.93782 4.39292 8.05481 4.37965C8.1718 4.36638 8.29016 4.38643 8.39625 4.43748V4.43748ZM7.5 6.29998L5.39 7.98748C5.27937 8.07624 5.14184 8.12473 5 8.12498H2.5V11.875H5C5.14184 11.8752 5.27937 11.9237 5.39 12.0125L7.5 13.7V6.29998ZM17.3175 7.05748C17.3757 7.11554 17.4219 7.18451 17.4534 7.26044C17.4849 7.33637 17.5011 7.41777 17.5011 7.49998C17.5011 7.58219 17.4849 7.66359 17.4534 7.73952C17.4219 7.81545 17.3757 7.88442 17.3175 7.94248L15.2587 9.99998L17.3175 12.0575C17.4349 12.1748 17.5008 12.334 17.5008 12.5C17.5008 12.666 17.4349 12.8251 17.3175 12.9425C17.2001 13.0598 17.041 13.1258 16.875 13.1258C16.709 13.1258 16.5499 13.0598 16.4325 12.9425L14.375 10.8837L12.3175 12.9425C12.2001 13.0598 12.041 13.1258 11.875 13.1258C11.709 13.1258 11.5499 13.0598 11.4325 12.9425C11.3151 12.8251 11.2492 12.666 11.2492 12.5C11.2492 12.334 11.3151 12.1748 11.4325 12.0575L13.4912 9.99998L11.4325 7.94248C11.3744 7.88437 11.3283 7.81538 11.2968 7.73946C11.2654 7.66354 11.2492 7.58216 11.2492 7.49998C11.2492 7.4178 11.2654 7.33643 11.2968 7.2605C11.3283 7.18458 11.3744 7.11559 11.4325 7.05748C11.5499 6.94012 11.709 6.87419 11.875 6.87419C11.9572 6.87419 12.0386 6.89038 12.1145 6.92183C12.1904 6.95328 12.2594 6.99937 12.3175 7.05748L14.375 9.11623L16.4325 7.05748C16.4906 6.99928 16.5595 6.9531 16.6355 6.92159C16.7114 6.89008 16.7928 6.87386 16.875 6.87386C16.9572 6.87386 17.0386 6.89008 17.1145 6.92159C17.1905 6.9531 17.2594 6.99928 17.3175 7.05748V7.05748Z" fill="white"/>
</svg>
