<svg width="36" height="36" viewBox="0 0 36 36" fill="none" xmlns="http://www.w3.org/2000/svg">
<path d="M26.8695 7.54422L18 16.4137L9.13052 7.54422C8.9172 7.34901 8.63678 7.24363 8.34769 7.25003C8.0586 7.25644 7.78313 7.37414 7.57866 7.57861C7.37419 7.78307 7.25649 8.05855 7.25009 8.34764C7.24368 8.63673 7.34906 8.91715 7.54427 9.13047L16.4093 18L7.54202 26.8672C7.43369 26.9705 7.34709 27.0943 7.28731 27.2315C7.22754 27.3687 7.19579 27.5165 7.19393 27.6661C7.19208 27.8157 7.22016 27.9642 7.27652 28.1029C7.33288 28.2415 7.41639 28.3674 7.52213 28.4733C7.62787 28.5792 7.75372 28.6629 7.89227 28.7195C8.03081 28.776 8.17927 28.8043 8.32891 28.8027C8.47855 28.801 8.62635 28.7695 8.76363 28.7099C8.9009 28.6503 9.02488 28.5639 9.12827 28.4557L18 19.5885L26.8695 28.458C27.0828 28.6532 27.3633 28.7586 27.6524 28.7522C27.9414 28.7458 28.2169 28.6281 28.4214 28.4236C28.6259 28.2191 28.7436 27.9436 28.75 27.6546C28.7564 27.3655 28.651 27.085 28.4558 26.8717L19.5863 18.0022L28.4558 9.13047C28.5641 9.02723 28.6507 8.90337 28.7105 8.76618C28.7703 8.62899 28.802 8.48124 28.8039 8.3316C28.8057 8.18196 28.7776 8.03347 28.7213 7.89484C28.6649 7.75621 28.5814 7.63025 28.4757 7.52435C28.3699 7.41846 28.2441 7.33478 28.1055 7.27822C27.967 7.22166 27.8185 7.19337 27.6689 7.19501C27.5192 7.19665 27.3714 7.22819 27.2342 7.28778C27.0969 7.34736 26.9729 7.43378 26.8695 7.54197V7.54422Z" fill="#757575"/>
</svg>
